<svg xmlns="http://www.w3.org/2000/svg" width="256" height="256"><path fill-opacity=".016" d="M0 128.004v128.004l128.25-.254 128.25-.254.254-127.75L257.008 0H0v128.004m.485.496c0 70.4.119 99.053.265 63.672.146-35.38.146-92.98 0-128C.604 29.153.485 58.1.485 128.5" fill="#1976D2" fill-rule="evenodd"/><path fill-opacity=".115" d="M106.5 1.396C64.994 9.324 31.81 33.901 13.475 70.294 4.065 88.974 0 106.38 0 128c0 34.469 12.477 65.403 35.919 89.056 19.207 19.38 44.847 32.861 71.007 37.333 8.011 1.369 19.255 1.611 74.868 1.611h65.441l3.883-3.882 3.882-3.883-.003-66.367c-.004-70.719-.228-74.693-5.118-90.525-13.776-44.602-48.134-76.824-94.379-88.511-10.363-2.619-38.489-3.443-49-1.436m7 26.212c-16.515 3.408-32.7 14.919-39.264 27.926-19.226 38.094 1.232 75.947 55.417 102.541 9.073 4.453 10.025 5.301 11.827 10.545 2.565 7.461-2.153 15.478-9.973 16.945-3.001.563-5.143-.084-13.243-4C79.66 162.901 54.74 138.25 44.909 109c-2.696-8.023-3.27-11.434-3.693-21.938l-.5-12.438-3.501 6.938c-16.491 32.69-14.486 71.738 5.239 101.999 15.235 23.372 40.855 39.967 69.427 44.971 33.576 5.88 62.528-8.503 72.135-35.837 12.457-35.444-7.662-68.596-56.956-93.847-12.215-6.257-14.56-8.819-14.56-15.905 0-4.301.445-5.355 3.59-8.5 5.817-5.817 9.195-5.69 22.41.838 19.82 9.792 40.355 24.973 51.695 38.219 17.281 20.186 24.71 40.099 23.494 62.98-.944 17.769-5.763 31.444-16.212 46.008l-5.39 7.512h37.016l-.338-58.75c-.329-57.102-.401-58.974-2.561-66.75-4.71-16.955-10.782-28.884-21.456-42.153-21.222-26.381-60.075-41.173-91.248-34.739" fill="#1976D2" fill-rule="evenodd"/><path fill-opacity=".293" d="M113.5.608C82.759 5.166 57.693 17.376 37.386 37.683 11.724 63.345-1.362 97.137.28 133.5c1.537 34.035 14.406 62.551 38.743 85.853 18.326 17.545 38.034 28.065 64.229 34.286 6.399 1.52 15.155 1.762 74.748 2.067 65.861.337 67.578.297 70.701-1.636 6.698-4.145 6.437-.854 6.07-76.369l-.331-68.201-3.136-11.69C238.124 48.684 202.654 14.077 154 2.875 145.73.971 120.554-.438 113.5.608m-1.291 26.856c-11.661 2.645-21.825 8.358-30.408 17.088-12.089 12.297-17.589 33.995-13.266 52.334 2.785 11.814 8.706 21.431 20.426 33.172 11.528 11.549 20.24 17.713 38.166 27.008 9.592 4.973 11.997 6.675 13.292 9.404 3.125 6.587 1.18 14.135-4.386 17.013-5.373 2.778-9.899 1.941-21.335-3.95-39.106-20.142-62.263-44.724-70.883-75.244-1.674-5.929-2.213-10.595-2.257-19.538-.032-6.461-.165-11.749-.297-11.75-.879-.005-8.473 16.93-10.538 23.499-3.93 12.506-5.054 21.818-4.43 36.715.679 16.194 2.964 25.48 9.667 39.285 10.491 21.604 26.62 37.289 49.417 48.056 12.898 6.091 22.783 8.524 37.24 9.166 9.315.413 13.884.145 19.754-1.161 27.251-6.063 45.534-28.615 45.612-56.262.078-27.838-21.126-53.456-61.22-73.965-11.808-6.04-14.036-8.502-14.036-15.515 0-6.894 5.349-12.092 12.442-12.092 2.995 0 6.835 1.415 14.217 5.238 22.934 11.876 43.903 28.415 55.68 43.917 6.411 8.437 14.382 24.594 16.587 33.618 2.084 8.533 2.318 27.397.445 36-2.915 13.39-10.719 29.192-18.394 37.25l-3.096 3.25h38.48l-.325-59.75c-.32-58.754-.364-59.883-2.612-67.75-2.807-9.821-9.461-24.103-15.198-32.623-5.491-8.154-18.643-21.317-26.762-26.783-8.459-5.696-18.789-10.453-29.691-13.672-11.218-3.312-32.068-4.278-42.291-1.958" fill="#1976D2" fill-rule="evenodd"/><path fill-opacity=".561" d="M113.845 1.074C63.423 7.285 22.035 41.031 6.497 88.601c-7.957 24.358-7.904 53.945.141 78.899 12.448 38.615 43.293 69.051 82.862 81.765 19.356 6.219 26.371 6.717 94.73 6.727 64.269.009 64.513-.012 68.461-5.827 1.701-2.505 1.809-6.648 1.809-69.165 0-73.187.007-73.088-6.475-92.924-14.149-43.297-50.89-75.907-95.791-85.02-11.876-2.411-28.109-3.249-38.389-1.982m3.986 24.949c-23.95 4.042-41.219 17.608-47.875 37.61-8.074 24.263-1.985 46.206 18.544 66.827 10.169 10.214 20.91 17.764 38.161 26.823 10.183 5.347 12.098 6.748 13.692 10.01 3.743 7.662-1.03 16.495-9.385 17.373-3.728.391-5.801-.183-12.51-3.462-33.267-16.261-57.981-38.74-69.136-62.884-5.347-11.571-7.392-21.017-7.431-34.32-.037-12.902-.281-12.985-5.832-2-19.518 38.62-12.014 86.719 18.288 117.226 22.127 22.278 56.652 35.124 82.714 30.778 25.773-4.298 43.368-19.602 49.446-43.004 2.323-8.949 1.682-25.193-1.321-33.432-7.824-21.463-28.092-40.554-59.967-56.483-9.163-4.579-12.234-8.13-12.18-14.085.04-4.414 1.784-7.585 5.528-10.054 4.954-3.265 9.326-2.52 21.171 3.608 40.261 20.831 64.895 47.936 71.809 79.011 2.276 10.233 1.566 29.811-1.448 39.899-2.985 9.991-8.001 20.01-13.939 27.839-2.838 3.742-5.16 7.004-5.16 7.25 0 .246 8.801.447 19.558.447h19.558l-.348-58.75-.349-58.75-2.709-9.977c-6.745-24.836-22.293-46.988-42.71-60.852-19.217-13.05-46.626-19.946-66.169-16.648" fill="#1976D2" fill-rule="evenodd"/></svg>